<?xml version="1.0" encoding="UTF-8" standalone="no"?>
<!DOCTYPE svg PUBLIC "-//W3C//DTD SVG 1.1//EN" "http://www.w3.org/Graphics/SVG/1.1/DTD/svg11.dtd">
<svg width="100%" height="100%" viewBox="0 0 24 24" version="1.1" xmlns="http://www.w3.org/2000/svg" xmlns:xlink="http://www.w3.org/1999/xlink" xml:space="preserve" xmlns:serif="http://www.serif.com/" style="fill-rule:evenodd;clip-rule:evenodd;stroke-linejoin:round;stroke-miterlimit:2;">
    <path d="M23.4,4.9C22.6,5.3 21.7,5.5 20.7,5.6C21.7,5 22.4,4.1 22.8,3C21.9,3.5 20.9,3.9 19.8,4.1C18.9,3.2 17.7,2.6 16.4,2.6C13.8,2.6 11.7,4.7 11.7,7.3C11.7,7.7 11.7,8 11.8,8.4C7.9,8.3 4.5,6.4 2.1,3.6C1.7,4.3 1.5,5.1 1.5,5.9C1.5,7.5 2.3,9 3.6,9.8C2.8,9.8 2.1,9.6 1.5,9.2L1.5,9.3C1.5,11.6 3.1,13.5 5.3,13.9C4.8,14 4.4,14.1 4,14.1C3.7,14.1 3.4,14.1 3.1,14C3.7,15.9 5.4,17.2 7.5,17.3C5.9,18.6 3.9,19.3 1.7,19.3C1.3,19.3 0.9,19.3 0.6,19.2C2.7,20.5 5.1,21.3 7.8,21.3C16.4,21.3 21.2,14.1 21.2,7.9L21.2,7.3C22,6.7 22.8,5.8 23.4,4.9Z" style="fill:rgb(29,161,242);fill-rule:nonzero;"/>
</svg>
